<svg width="199" height="67" viewBox="0 0 199 67" fill="none" xmlns="http://www.w3.org/2000/svg">
<path fill-rule="evenodd" clip-rule="evenodd" d="M24.6256 41.2008C23.7623 40.5039 22.7187 40.2454 21.705 40.3143L21.6864 40.3272V40.3156C19.2348 40.4917 16.9662 42.5791 17.8637 45.003C18.031 45.4533 18.3072 45.9156 18.7117 46.379C18.8616 46.5508 19.0291 46.7228 19.2153 46.8946C19.4509 47.1119 19.6995 47.3091 19.9587 47.4807C20.2484 47.6727 20.5517 47.8328 20.8672 47.9559C21.2839 48.1178 21.6827 48.1988 22.0566 48.2214C22.5639 48.2521 23.0248 48.1743 23.4207 48.0425C24.2182 47.7778 24.8597 47.2688 25.3176 46.68C25.7848 46.0794 26.1243 45.3132 26.177 44.4587C26.1865 44.3038 26.1865 44.1423 26.1743 43.9751C26.1299 43.3579 25.9199 42.6674 25.4078 41.9969C25.3422 41.9113 25.2728 41.8272 25.1999 41.7454C25.0278 41.5518 24.8354 41.3699 24.6256 41.2008ZM20.7427 42.9793C20.9322 42.829 21.1429 42.6859 21.372 42.56C21.6934 42.3833 22.0501 42.2405 22.4328 42.1582C22.8492 42.0681 23.4858 42.0157 24.0535 42.3168C24.1323 42.3725 24.241 42.6452 24.266 42.7154C24.2951 42.7966 24.3201 42.8789 24.3419 42.9601C24.3629 43.0395 24.3808 43.1183 24.3953 43.1944C24.554 44.0268 23.9219 45.0613 23.4855 45.5551C23.1519 45.9329 22.721 46.2845 22.1968 46.4795C21.8089 46.6239 21.2856 46.7086 20.7108 46.4907L20.6838 46.4805C20.5381 46.4227 20.3943 46.3479 20.2543 46.2564C20.0687 46.1354 19.9057 45.9936 19.7815 45.8251C19.731 45.7567 19.6891 45.6867 19.6553 45.6168C19.442 45.1768 19.5302 44.7201 19.6376 44.4205C19.8426 43.8474 20.2734 43.3527 20.7428 42.9796L20.7427 42.9793ZM43.7303 18.091C40.141 17.7773 36.5141 17.5313 32.9158 17.8548C30.3162 18.0888 27.7633 18.61 25.223 19.1945L23.8252 19.5159L24.9632 18.6426C26.1315 17.7456 27.8039 17.1437 29.2122 16.758C31.0876 16.2446 33.0787 15.9539 35.0192 15.8669C37.8675 15.7384 41.4123 16.0355 43.9159 17.5113L45.1037 18.2109L43.7303 18.0912V18.091ZM4.11728 30.8465C4.46609 18.8872 12.9423 8.17427 24.3395 4.75043C30.1718 2.99897 36.3711 3.23536 42.1193 5.19537C47.8896 7.16323 52.8459 11.7711 54.3569 14.6371C51.2268 12.142 45.3667 9.20101 41.2085 7.92721C35.5566 6.19515 29.4278 6.207 23.8322 8.15901C12.4722 12.1208 6.1589 22.7962 4.10187 31.3669L4.11728 30.8463V30.8465ZM61.6664 33.0266C59.6427 35.8771 56.9639 37.6576 53.6564 39.3754C53.1474 39.6398 52.6296 39.8913 52.0944 40.0986C51.9616 40.15 51.8303 40.2282 51.7015 40.2896C49.8376 41.1774 47.5465 42.0169 45.6107 42.8174L38.5313 45.7445C39.391 44.1809 42.9778 41.9969 45.0426 40.8121C47.3842 39.4684 50.0442 38.2537 52.4718 37.0284C57.7299 34.3749 61.2011 30.6304 62.7572 24.8924L63.2794 22.9672L63.8886 24.8663C64.4477 26.6095 64.0583 28.4074 63.353 30.0409L62.4511 31.8099L61.6665 33.0267L61.6664 33.0266ZM46.933 61.2877C41.461 63.9603 35.3049 64.7308 29.3154 63.7266C26.4378 63.2447 23.6476 62.1353 21.3047 60.8267C29.7285 61.9617 39.1542 62.0461 46.8827 57.8423C57.0219 52.3278 61.5802 41.4702 62.5031 32.8348L62.5038 32.8352C64.0205 44.6409 57.6176 56.0692 46.9332 61.2879L46.933 61.2877ZM47.7505 20.3163C50.4105 18.9132 52.8572 17.1031 54.7729 14.7693C55.1446 14.3169 55.5252 13.8706 55.9291 13.447C56.6398 12.6993 57.9721 11.4078 59.1117 11.6688C60.1461 11.9054 60.4798 13.2497 60.6195 14.1435C61.4358 19.3731 60.0552 26.6352 56.4112 30.6395C53.2601 34.1029 48.4678 36.4128 44.2989 38.4162C41.5238 39.75 38.679 41.0681 36.0634 42.6985C33.7627 44.1321 31.5293 45.8919 30.0665 48.2124C29.7573 48.703 29.4847 49.2152 29.254 49.7475C29.1762 49.9266 29.0919 50.0995 29.0097 50.276C28.9768 50.3465 28.9339 50.4365 28.922 50.514C28.897 50.6748 29.0235 51.0358 29.0713 51.1875C29.9 53.8155 29.3215 56.2942 27.0265 57.8904C24.2995 59.7863 20.9208 59.5763 17.8808 58.6406C16.1576 58.1102 14.4199 57.1962 12.8908 56.2503C11.0098 55.087 9.21275 53.7213 7.58096 52.2283C5.67427 50.4833 3.84697 48.4316 2.55659 46.1817C1.97079 45.1608 1.47905 44.0664 1.17896 42.9257C0.898729 41.8636 0.788235 40.7641 0.930722 39.6716C1.00819 39.0775 1.15912 38.498 1.38336 37.9428C2.14186 36.0631 3.02478 35.2677 4.76825 34.3549C5.03796 34.2131 5.3105 34.0783 5.58051 33.9378C5.66553 33.893 5.77884 33.8369 5.85008 33.771C5.92532 33.7021 6.00146 33.5884 6.06278 33.5063C6.24511 33.261 6.43366 33.0238 6.6305 32.7897C10.2155 28.5236 16.2635 24.9359 21.4123 22.9004C29.1124 19.856 36.9659 19.4057 45.1174 20.3815C46.1785 20.5084 46.7162 20.782 47.7506 20.3165L47.7505 20.3163ZM50.0737 22.5702C50.8131 22.72 51.444 23.1039 51.8162 23.8147C51.9981 24.1624 52.1258 24.5341 52.1979 24.9204C52.7356 27.8006 50.2256 30.9096 47.9229 32.3648C46.4134 33.3181 44.1625 33.8568 42.5802 32.7637C41.4886 32.0087 41.1432 30.7251 41.1999 29.4559C41.2903 27.4315 42.7787 25.6012 44.3222 24.4194C45.3069 23.6652 46.5904 22.9697 47.8956 22.661C46.8028 22.6586 45.7499 22.601 44.8384 22.5684C40.3336 22.4082 35.7411 22.2928 31.2648 22.9113C28.1855 23.3366 25.2502 24.1087 22.33 25.1708C19.6764 26.1367 17.0968 27.2681 14.66 28.7028C12.1684 30.1697 9.91452 31.9064 7.83305 33.913C7.51135 34.2229 7.21497 34.5493 6.89874 34.8616C6.53615 35.2209 6.12869 35.5157 5.7107 35.8061C4.4538 36.679 3.84164 37.1221 3.2548 38.6428C3.11705 39.0002 3.01752 39.3704 2.95576 39.7485C2.27991 43.8947 6.14957 48.4248 8.98065 50.9918C10.5296 52.3961 12.2469 53.6814 14.0441 54.7496C15.4383 55.5783 17.096 56.4105 18.6801 56.7876C20.7395 57.2777 23.9295 57.6515 25.6596 56.1213C26.906 55.0186 27.3482 53.3608 27.033 51.7497C26.7406 50.257 26.8216 50.4654 27.3929 49.1177C28.462 46.5965 30.0542 44.5147 32.1394 42.7517C35.2267 40.1425 39.0727 38.4793 42.7458 36.877C47.1702 34.9464 51.9413 32.9096 55.182 29.1888C58.5828 25.284 59.9345 19.4783 58.924 14.4339C58.8898 14.2615 58.7806 13.8009 58.5666 13.7486C58.2049 13.6602 57.4531 14.4425 57.2342 14.6768C56.8851 15.0507 56.5693 15.4528 56.2227 15.825C54.3957 17.7855 52.6399 19.3928 50.3921 20.6881C52.0301 20.5552 53.7846 20.1793 55.1745 19.4915L56.2221 18.9735L55.5717 19.945C54.3961 21.7021 52.2889 22.3571 50.0737 22.5708V22.5702ZM24.5357 51.3094C23.5554 52.0145 22.4562 52.4427 21.2504 52.542C19.4647 52.6886 17.7076 52.0966 16.1674 51.2319C14.4571 50.2723 12.9014 48.9272 11.5716 47.4926C9.57845 45.3419 7.43018 42.2174 6.62843 39.3672L6.12735 37.5865L7.18416 39.1037C11.6119 45.4603 15.9606 50.7416 24.3534 50.7436L25.3209 50.744L24.5357 51.3094ZM26.8921 31.8062C26.4362 31.0371 26.1954 30.1651 26.4682 29.2748C27.2646 26.6807 30.0984 26.5551 32.1903 27.585C33.95 28.4513 35.6839 30.2384 36.2791 32.1232C36.611 33.1772 36.7218 34.5185 36.2546 35.5435C35.8746 36.3772 35.2597 37.0295 34.3759 37.3184C33.2097 37.6998 31.9104 37.345 30.873 36.7335C30.3739 37.8273 30.095 39.1304 28.7748 39.4848C28.1843 39.6432 27.5874 39.6131 27.0371 39.3372C25.2473 38.4402 24.7898 35.5035 25.5237 33.791C25.8144 33.1129 26.2986 32.3092 26.892 31.8062H26.8921ZM8.36671 39.0399C4.84808 32.5782 18.479 25.8367 21.5309 30.2057C21.7931 30.5803 21.9776 30.9946 22.0779 31.4416C22.373 32.7635 21.8851 34.1363 21.2086 35.2606C20.4109 36.5868 19.2422 37.775 18.0136 38.7069C16.8096 39.6204 15.3892 40.4098 13.9295 40.8207C12.6715 41.175 11.2461 41.2788 10.0406 40.6859C9.30784 40.3253 8.75596 39.754 8.36686 39.0399H8.36671ZM31.8334 34.9547C32.646 35.3585 33.8812 35.8494 34.5706 35.1591C34.8339 34.895 34.9299 34.4612 34.9296 34.0118L33.1558 34.1648C32.6719 34.2063 32.0853 34.5037 31.8335 34.9547H31.8334ZM34.9289 33.9532C34.9206 33.5154 34.824 33.0704 34.7045 32.7606C33.9864 31.3403 32.8201 29.9656 31.3129 29.3714C30.4815 29.043 28.6691 28.6942 28.1693 29.7264C27.9643 30.1506 27.9497 30.7154 28.1663 31.1454C28.4649 31.1288 28.6852 31.1282 29.0305 31.211L29.9094 31.4211L29.0878 31.798C28.1619 32.2232 27.3976 33.458 27.0676 34.398C26.8052 35.146 26.8105 36.0416 27.0571 36.7936C27.1883 37.1938 27.5292 37.8971 28.0253 37.9227C28.1224 37.9277 28.2158 37.9138 28.3069 37.8788C29.1402 37.5577 29.5493 35.6242 29.944 34.8829C30.7193 33.4268 31.6573 33.1905 33.2001 33.5499L34.9292 33.9533L34.9289 33.9532ZM43.1953 29.5624C43.1555 29.9498 43.2144 30.3451 43.4996 30.6305C44.2093 31.3419 45.7788 31.062 46.5775 30.6588C47.1863 30.3516 47.7603 29.9394 48.2726 29.4899C48.9826 28.8675 49.6849 28.0723 50.1345 27.2379C50.3742 26.7936 50.7109 26.0023 50.4411 25.5066C50.3788 25.3923 50.2889 25.304 50.1794 25.2336C50.0046 25.1228 49.777 25.0817 49.5739 25.0689C48.4091 24.9963 46.8815 25.7305 45.9257 26.3443C44.9354 26.9799 43.3276 28.2996 43.1955 29.5626L43.1953 29.5624ZM10.5131 38.0492C10.6627 38.1994 10.8336 38.3214 11.0246 38.4128C11.7341 38.7509 12.6175 38.6196 13.3398 38.3956C14.3167 38.093 15.2799 37.5471 16.114 36.9613C17.2048 36.1952 19.0519 34.5904 19.5035 33.2984C19.5869 33.0593 19.6589 32.8042 19.7039 32.5556C19.7238 32.4464 19.7838 32.0241 19.7082 31.9372C19.0796 31.4706 18.0487 31.5513 17.3265 31.6912C16.1909 31.9101 15.0248 32.4049 14.0167 32.9653C12.9764 33.5442 11.8935 34.3113 11.0943 35.2008C10.6101 35.7395 9.98991 36.6064 10.1411 37.3797C10.1927 37.6408 10.3269 37.8611 10.5131 38.049V38.0492Z" fill="#82050B"/>
<path fill-rule="evenodd" clip-rule="evenodd" d="M42.8618 16.7578C39.2724 16.4439 35.6455 16.198 32.0476 16.5217C29.4477 16.7554 26.8948 17.2766 24.3545 17.8611L22.957 18.1825L24.095 17.3092C25.2633 16.4122 26.9354 15.8103 28.344 15.4246C30.2191 14.9112 32.2101 14.6208 34.1511 14.5335C36.9983 14.4053 40.5432 14.7021 43.0474 16.1782L44.2348 16.8777L42.8618 16.7578ZM24.423 39.8845C23.5601 39.1876 22.5164 38.9292 21.5024 38.9981L21.484 39.0109V38.9994C19.0327 39.1755 16.7638 41.2632 17.662 43.6868C17.8285 44.1371 18.105 44.5993 18.5095 45.0628C18.6591 45.2349 18.8269 45.4069 19.0133 45.5787C19.2489 45.7955 19.4972 45.9928 19.7567 46.1645C20.0461 46.3563 20.3494 46.5165 20.6652 46.6392C21.0819 46.8014 21.4807 46.8828 21.8543 46.9052C22.362 46.9359 22.8228 46.8581 23.2187 46.7261C24.0162 46.4614 24.6574 45.9528 25.1152 45.3636C25.5823 44.763 25.9221 43.9968 25.975 43.142C25.9845 42.9877 25.9845 42.8259 25.9723 42.6589C25.9279 42.042 25.7179 41.351 25.2058 40.6809C25.1402 40.5946 25.0711 40.5109 24.9977 40.4291C24.8258 40.2356 24.6335 40.0537 24.4232 39.8845H24.423ZM20.5403 41.6634C20.7299 41.513 20.9406 41.3692 21.1697 41.2438C21.4911 41.0671 21.8475 40.9243 22.2302 40.8419C22.6468 40.7519 23.2834 40.6997 23.8507 41.0004C23.9298 41.0566 24.0387 41.3288 24.0634 41.3991C24.0927 41.4802 24.1178 41.5625 24.1393 41.6437C24.1606 41.7235 24.1785 41.8019 24.1926 41.878C24.3515 42.7104 23.7195 43.7449 23.283 44.239C22.9494 44.6165 22.5186 44.9683 21.9944 45.1631C21.6065 45.3078 21.0832 45.3925 20.5079 45.1743L20.4812 45.1641C20.3352 45.1068 20.1917 45.0312 20.0517 44.9398C19.8661 44.8185 19.7029 44.6772 19.5789 44.5084C19.5284 44.4401 19.4867 44.3706 19.4527 44.3003C19.2394 43.8605 19.3271 43.4036 19.4347 43.104C19.6404 42.531 20.071 42.0362 20.5403 41.6634ZM46.8827 18.9829C49.542 17.5798 51.9888 15.77 53.9051 13.4358C54.276 12.9835 54.657 12.5372 55.0604 12.1136C55.7715 11.3659 57.1037 10.0744 58.243 10.3355C59.2774 10.5722 59.611 11.9169 59.7508 12.8102C60.5669 18.0402 59.1871 25.302 55.5424 29.3067C52.3916 32.7699 47.5993 35.08 43.4304 37.0834C40.655 38.4168 37.81 39.7351 35.1949 41.3652C32.8942 42.7993 30.6603 44.5586 29.198 46.8791C28.8887 47.3697 28.6162 47.8823 28.3851 48.4143C28.3077 48.5933 28.2229 48.7664 28.1412 48.9431C28.1086 49.0136 28.0654 49.1037 28.0532 49.1811C28.0286 49.3421 28.1551 49.7026 28.203 49.8543C29.0317 52.4826 28.4528 54.9613 26.1576 56.5573C23.4308 58.4535 20.0522 58.2431 17.0119 57.3075C15.2885 56.7771 13.5515 55.8629 12.0219 54.9172C10.141 53.7535 8.34392 52.388 6.71213 50.8954C4.80515 49.1509 2.97844 47.0985 1.68821 44.8488C1.10241 43.8275 0.610516 42.7331 0.310286 41.5924C0.0304959 40.5302 -0.0802946 39.4308 0.0620444 38.3383C0.139509 37.7443 0.290734 37.1651 0.514537 36.61C1.27348 34.7305 2.15566 33.9346 3.89942 33.0216C4.16944 32.8801 4.44182 32.7454 4.71169 32.6049C4.7967 32.5601 4.91016 32.5038 4.9817 32.4382C5.0568 32.3693 5.13263 32.2555 5.19439 32.1735C5.37658 31.9282 5.56528 31.6908 5.76168 31.4567C9.34666 27.1907 15.395 23.6026 20.5439 21.5669C28.2437 18.5229 36.0972 18.0723 44.2486 19.0481C45.3098 19.175 45.8475 19.4489 46.8825 18.9831L46.8827 18.9829ZM49.2054 21.2365C49.9445 21.3864 50.5751 21.7704 50.9477 22.4812C51.1296 22.8298 51.2573 23.2009 51.3291 23.5869C51.8675 26.4673 49.3571 29.5764 47.0545 31.0312C45.5449 31.9845 43.294 32.5235 41.7117 31.4298C40.6205 30.6754 40.2748 29.3916 40.3318 28.1224C40.4225 26.0979 41.9109 24.2677 43.4537 23.0859C44.4389 22.3317 45.7221 21.6361 47.0273 21.3274C45.9348 21.3252 44.8815 21.2674 43.9703 21.2349C39.4652 21.075 34.8727 20.9589 30.3962 21.5773C27.3169 22.003 24.3813 22.7753 21.4619 23.8371C18.8081 24.8031 16.2283 25.9344 13.7918 27.3694C11.3003 28.836 9.04614 30.5726 6.96452 32.5793C6.64252 32.8892 6.34644 33.2152 6.03021 33.5281C5.66762 33.8872 5.26016 34.1819 4.84247 34.4724C3.58512 35.3457 2.97296 35.7884 2.38657 37.3091C2.24867 37.6668 2.14884 38.0366 2.08723 38.4151C1.41167 42.5608 5.28089 47.0909 8.11242 49.6584C9.66156 51.0623 11.3787 52.3481 13.176 53.4162C14.5698 54.2446 16.228 55.0763 17.8124 55.4538C19.8718 55.9441 23.0613 56.3182 24.7916 54.7876C26.0377 53.6849 26.4801 52.027 26.1646 50.416C25.8725 48.9237 25.9534 49.1317 26.525 47.7841C27.5939 45.2632 29.186 43.1811 31.2713 41.4184C34.3585 38.8088 38.2046 37.146 41.8777 35.5433C46.3016 33.6127 51.0735 31.5763 54.3139 27.855C57.7144 23.9506 59.0662 18.145 58.0555 13.1002C58.0213 12.9278 57.9121 12.4676 57.6981 12.4152C57.3368 12.3269 56.5851 13.1091 56.3659 13.3434C56.0171 13.717 55.701 14.1195 55.3543 14.4917C53.5276 16.4522 51.7715 18.0596 49.5236 19.3545C51.1619 19.222 52.916 18.8459 54.3058 18.1582L55.3536 17.6399L54.703 18.6117C53.5274 20.3684 51.4204 21.0235 49.2054 21.2368V21.2365ZM23.6671 49.9759C22.6867 50.6817 21.5875 51.1093 20.382 51.2085C18.5959 51.3555 16.8388 50.7632 15.2987 49.8988C13.5888 48.939 12.0329 47.5938 10.7033 46.1591C8.71006 44.0084 6.5618 40.8839 5.75975 38.0337L5.25897 36.2529L6.31578 37.7706C10.7431 44.1267 15.0922 49.4082 23.485 49.4101L24.4525 49.4109L23.6669 49.9759H23.6671ZM26.0234 30.4724C25.5675 29.7034 25.3261 28.8317 25.5997 27.9417C26.3962 25.3473 29.2295 25.222 31.322 26.2518C33.0816 27.1182 34.8153 28.9049 35.4104 30.7896C35.7431 31.8439 35.8531 33.1853 35.386 34.2102C35.0062 35.0443 34.3908 35.6963 33.5076 35.9851C32.3413 36.3665 31.042 36.012 30.0046 35.4006C29.5052 36.4942 29.2266 37.7973 27.906 38.1516C27.3159 38.3102 26.7188 38.2798 26.1686 38.0042C24.3789 37.1072 23.9211 34.1707 24.6548 32.4579C24.9453 31.7796 25.4299 30.9764 26.0233 30.4725L26.0234 30.4724ZM7.49818 37.7065C3.9794 31.2448 17.61 24.5033 20.6624 28.8723C20.9246 29.2472 21.1091 29.6614 21.2089 30.1082C21.5043 31.4301 21.0161 32.8028 20.3397 33.9272C19.5419 35.2534 18.373 36.4416 17.1449 37.3735C15.9406 38.2874 14.5199 39.0765 13.0608 39.4876C11.8029 39.842 10.3768 39.9458 9.17189 39.3525C8.43901 38.9921 7.88714 38.4208 7.49818 37.7065ZM30.9646 33.6213C31.7771 34.0251 33.0123 34.5159 33.7019 33.8257C33.9654 33.5616 34.0609 33.1279 34.0606 32.6786L32.2866 32.8316C31.803 32.8735 31.2164 33.1704 30.9646 33.6215V33.6213ZM34.0599 32.6198C34.0517 32.1824 33.9552 31.7373 33.8361 31.4271C33.1174 30.0073 31.9509 28.6326 30.4439 28.0379C29.6126 27.7096 27.8001 27.3608 27.3003 28.3933C27.0953 28.8172 27.0808 29.3815 27.2977 29.8121C27.5963 29.7952 27.8162 29.7946 28.1616 29.8774L29.0403 30.088L28.2191 30.4645C27.2928 30.8898 26.529 32.1248 26.199 33.0645C25.9366 33.8125 25.9415 34.7082 26.1884 35.4602C26.3197 35.8604 26.6602 36.5639 27.1564 36.5892C27.2535 36.5946 27.3468 36.5804 27.4378 36.5454C28.2712 36.2243 28.6806 34.2912 29.0752 33.5495C29.8503 32.0936 30.7888 31.857 32.3312 32.2163L34.0599 32.6198ZM42.3268 28.2293C42.2867 28.6166 42.3459 29.012 42.6312 29.2974C43.341 30.0085 44.9101 29.7288 45.7084 29.3258C46.3179 29.0182 46.8923 28.6061 47.4042 28.1567C48.114 27.5341 48.8162 26.7388 49.2662 25.9045C49.5058 25.4601 49.8417 24.6694 49.5728 24.1732C49.5104 24.0587 49.4202 23.9704 49.311 23.9005C49.136 23.7894 48.9082 23.7482 48.7051 23.7353C47.5408 23.6629 46.0134 24.397 45.0567 25.0108C44.0667 25.6463 42.4588 26.9659 42.3268 28.2292V28.2293ZM9.64452 36.7157C9.79382 36.8664 9.9649 36.9883 10.1561 37.0797C10.8651 37.4175 11.7487 37.286 12.4712 37.0625C13.4477 36.7596 14.4112 36.2136 15.2449 35.6278C16.3358 34.8621 18.1832 33.2569 18.6345 31.9654C18.7182 31.7263 18.7898 31.4711 18.8352 31.2223C18.8554 31.1131 18.9146 30.6905 18.8392 30.6039C18.2109 30.1375 17.1798 30.2182 16.4578 30.3577C15.3221 30.5769 14.1558 31.0718 13.148 31.6321C12.1069 32.211 11.0244 32.978 10.2253 33.8678C9.74139 34.4062 9.12064 35.2735 9.27246 36.0466C9.32356 36.308 9.45775 36.5278 9.64438 36.7157H9.64452Z" fill="#FEFEFE"/>
<path fill-rule="evenodd" clip-rule="evenodd" d="M3.24853 29.5132C3.59764 17.5542 12.0734 6.84097 23.4707 3.41757C29.3031 1.66566 35.5023 1.9025 41.2508 3.86251C47.0211 5.82993 51.9769 10.4378 53.488 13.304C50.3583 10.8091 44.498 7.86815 40.3396 6.59406C34.6875 4.862 28.559 4.87385 22.9636 6.82586C11.6036 10.7877 5.28971 21.4631 3.23328 30.0341L3.24853 29.5132Z" fill="#FEFEFE"/>
<path fill-rule="evenodd" clip-rule="evenodd" d="M60.7983 31.6931C58.7742 34.5436 56.0951 36.3241 52.7879 38.0419C52.2783 38.3063 51.7611 38.5578 51.2258 38.7652C51.0932 38.8166 50.9621 38.8951 50.8333 38.9564C48.9694 39.8442 46.6785 40.6834 44.7425 41.484L37.6628 44.4113C38.5225 42.8478 42.1093 40.6639 44.1738 39.4791C46.5157 38.1351 49.1757 36.9207 51.6033 35.6953C56.8614 33.0415 60.3327 29.2973 61.8889 23.559L62.411 21.6341L63.0202 23.5333C63.5786 25.2757 63.1897 27.074 62.4842 28.7075L61.5825 30.4768L60.7982 31.6932L60.7983 31.6931Z" fill="#FEFEFE"/>
<path fill-rule="evenodd" clip-rule="evenodd" d="M46.0642 59.9544C40.5923 62.6273 34.4363 63.3974 28.4466 62.3939C25.5695 61.9116 22.7788 60.8024 20.4364 59.4936C28.8599 60.6282 38.2857 60.7126 46.0143 56.5093C56.1533 50.9948 60.7111 40.137 61.6347 31.5017L61.6356 31.5022C63.1517 43.3076 56.7488 54.7357 46.0642 59.9546V59.9544Z" fill="#FEFEFE"/>
<path d="M84.7207 26.282C83.7924 26.282 82.9732 25.9465 82.279 25.2757C81.5769 24.6125 81.2258 23.3956 81.2258 21.6482C81.2258 20.0178 81.4598 18.2391 81.9201 16.32C82.3881 14.4009 82.9264 12.5988 83.5427 10.9294C84.159 9.25212 84.6583 7.99619 85.0405 7.15367C85.3448 6.59203 85.9455 6.20199 86.8426 5.99133C87.4979 5.83531 88.1688 5.7573 88.8553 5.7573C89.1049 5.7573 89.5262 5.78067 90.1347 5.82752C90.7432 5.87438 91.3126 6.04597 91.8275 6.33464C90.9772 7.70764 90.0956 9.26782 89.1907 11.0153C88.2858 12.7705 87.5447 14.4087 86.983 15.93C89.4403 15.6881 91.4218 15.0016 92.9508 13.8627C94.472 12.7315 95.4628 11.46 95.9231 10.0557C96.1024 9.50963 96.1961 8.98694 96.1961 8.47983C96.1961 7.71532 95.8997 6.90395 95.3068 6.04586C94.7061 5.18776 93.3721 4.70401 91.3048 4.59485H90.9148C89.4404 4.59485 87.8178 4.82887 86.0547 5.30472C84.2994 5.77277 82.6924 6.61529 81.2336 7.83227C79.7826 9.04147 78.8152 10.6874 78.3471 12.7782C77.5515 12.1697 76.9975 11.4364 76.6777 10.5861C76.3734 9.80598 76.2174 9.06483 76.2174 8.37054C76.2174 7.23936 76.7245 6.03807 77.7386 4.76644C78.7527 3.49493 80.4456 2.39491 82.825 1.46659C85.3682 0.491421 88.0284 0 90.7977 0C93.1459 0 95.221 0.483632 97.0308 1.45101C98.8328 2.41839 99.847 4.04878 100.081 6.33452L100.104 7.06009C100.104 9.42384 99.4569 11.4443 98.1697 13.1293C96.8825 14.8143 95.1663 16.0704 93.021 16.8894C91.2034 17.5915 89.3467 17.9426 87.4432 17.9426C87.0766 17.9426 86.7178 17.927 86.3667 17.8958C85.571 19.7134 85.1809 21.2034 85.1809 22.3736C85.1809 22.5452 85.2198 22.9821 85.3057 23.6764C85.3915 24.3785 85.9454 25.1274 86.983 25.9231C86.1327 26.1649 85.3759 26.282 84.7206 26.282H84.7207ZM103.303 22.8339H103.209C101.914 22.6935 101.049 22.1163 100.604 21.0942C100.268 20.3219 100.105 19.417 100.105 18.4029C100.105 18.0362 100.151 17.381 100.253 16.437C100.346 15.4931 100.643 14.2214 101.127 12.6378C101.618 11.0541 102.133 9.63438 102.687 8.37054C103.038 7.68404 103.607 7.25494 104.395 7.08334C104.777 7.01312 105.168 6.97406 105.565 6.97406C105.994 6.97406 106.533 7.04428 107.196 7.19251C107.859 7.33295 108.475 7.59813 109.037 7.98038C108.584 8.60446 108.046 9.56404 107.43 10.8589C106.806 12.1539 106.236 13.5269 105.714 14.9701C105.183 16.4211 104.816 17.6693 104.606 18.7225C104.528 19.1281 104.489 19.4636 104.489 19.7288C104.489 20.2125 104.629 20.4544 104.902 20.4544C105.355 20.4544 105.885 20.1267 106.478 19.4714C107.297 18.5275 108.288 17.0141 109.45 14.9233C109.63 14.541 109.762 14.3539 109.84 14.3539C109.903 14.3539 109.934 14.4397 109.95 14.6035C109.848 15.8516 109.427 17.1232 108.694 18.4026C107.96 19.6821 107.11 20.7352 106.127 21.5777C105.144 22.4125 104.2 22.8337 103.303 22.8337V22.8339ZM107.984 6.12398C107.726 6.12398 107.438 6.10061 107.118 6.06155C105.44 5.87437 104.606 5.28925 104.606 4.2985C104.606 3.64316 104.863 2.97235 105.378 2.28585C105.807 1.72421 106.525 1.44334 107.531 1.44334H107.828C108.998 1.57598 109.794 1.8178 110.207 2.1532C110.542 2.41071 110.706 2.7617 110.706 3.19859L110.683 3.51842C110.605 4.6496 110.168 5.42969 109.357 5.85101C109.021 6.03818 108.569 6.1241 107.984 6.1241L107.984 6.12398ZM122.135 22.7637C120.528 22.202 118.89 21.9212 117.197 21.9212C116.861 21.9212 116.089 21.9601 114.888 22.046C113.686 22.1318 112.461 22.3112 111.229 22.5843C110.605 22.7014 110.191 22.7637 109.996 22.7637C108.896 22.7325 108.35 22.3346 108.35 21.5545C108.35 21.5076 108.366 21.2503 108.405 20.7744C108.444 20.3064 108.881 19.4092 109.708 18.083C110.542 16.7569 111.502 15.4151 112.602 14.0576C113.694 12.7002 114.685 11.5379 115.574 10.5706C116.456 9.60322 116.994 9.026 117.197 8.8465H113.928C113.655 10.1883 113.039 10.8592 112.071 10.8592C111.783 10.8592 111.447 10.7265 111.073 10.4691C110.691 10.2116 110.496 9.64996 110.496 8.79965C110.496 8.34718 110.667 7.91818 111.003 7.53581C111.338 7.14577 111.83 6.95069 112.485 6.95069H122.431C123.344 7.1145 123.796 7.61382 123.796 8.43286C123.796 9.04135 123.586 9.62647 123.157 10.1725C121.331 12.2165 119.576 13.9327 117.907 15.3369C116.986 16.1483 116.237 16.8504 115.652 17.4511C115.067 18.0518 114.755 18.551 114.724 18.9489L115.434 18.6993C117.267 17.9348 118.741 17.5526 119.865 17.5526C120.052 17.5526 120.395 17.5759 120.895 17.6228C121.402 17.6695 121.838 18.083 122.221 18.8553C122.392 19.222 122.47 19.6979 122.47 20.2752C122.47 20.9461 122.361 21.7729 122.135 22.7637ZM137.378 22.7637C135.771 22.202 134.133 21.9212 132.44 21.9212C132.105 21.9212 131.332 21.9601 130.131 22.046C128.93 22.1318 127.705 22.3112 126.472 22.5843C125.848 22.7014 125.435 22.7637 125.24 22.7637C124.14 22.7325 123.594 22.3346 123.594 21.5545C123.594 21.5076 123.609 21.2503 123.648 20.7744C123.687 20.3064 124.124 19.4092 124.951 18.083C125.786 16.7569 126.745 15.4151 127.845 14.0576C128.937 12.7002 129.928 11.5379 130.818 10.5706C131.699 9.60322 132.237 9.026 132.44 8.8465H129.171C128.898 10.1883 128.282 10.8592 127.315 10.8592C127.026 10.8592 126.691 10.7265 126.316 10.4691C125.934 10.2116 125.739 9.64996 125.739 8.79965C125.739 8.34718 125.911 7.91818 126.246 7.53581C126.582 7.14577 127.073 6.95069 127.728 6.95069H137.675C138.587 7.1145 139.04 7.61382 139.04 8.43286C139.04 9.04135 138.829 9.62647 138.4 10.1725C136.575 12.2165 134.819 13.9327 133.15 15.3369C132.229 16.1483 131.481 16.8504 130.896 17.4511C130.31 18.0518 129.998 18.551 129.967 18.9489L130.677 18.6993C132.51 17.9348 133.985 17.5526 135.108 17.5526C135.295 17.5526 135.639 17.5759 136.138 17.6228C136.645 17.6695 137.082 18.083 137.464 18.8553C137.636 19.222 137.714 19.6979 137.714 20.2752C137.714 20.9461 137.604 21.7729 137.378 22.7637ZM151.014 22.8339H150.929C149.08 22.6389 148.066 21.4453 147.863 19.2688C147.27 20.1971 146.607 20.9147 145.874 21.4141C145.14 21.9212 144.43 22.1708 143.728 22.1708C142.496 22.1708 141.528 21.7885 140.826 21.0318C139.789 19.9319 139.274 18.3482 139.274 16.2731C139.274 15.6802 139.352 14.8924 139.523 13.9094C139.687 12.9264 140.085 11.8499 140.709 10.672C141.333 9.50184 142.145 8.53447 143.135 7.78553C144.126 7.02881 145.265 6.65435 146.56 6.65435C148.557 6.65435 149.704 7.56709 149.993 9.39256L150.445 8.37066C150.78 7.68416 151.342 7.25505 152.138 7.08346C152.52 7.01324 152.91 6.97417 153.3 6.97417C153.729 6.97417 154.268 7.04439 154.923 7.19262C155.578 7.33306 156.194 7.59824 156.756 7.9805C156.296 8.60457 155.765 9.56416 155.157 10.859C154.548 12.154 153.971 13.527 153.441 14.9703C152.91 16.4213 152.536 17.6694 152.317 18.7226C152.247 19.1282 152.208 19.4637 152.208 19.7289C152.208 20.2127 152.341 20.4545 152.621 20.4545C153.503 20.4545 154.665 19.2219 156.116 16.7568C156.787 15.6256 157.201 14.8846 157.372 14.5335C157.45 14.4165 157.505 14.3541 157.552 14.3541C157.63 14.3541 157.669 14.4399 157.669 14.6037C157.559 15.8518 157.146 17.1235 156.42 18.4029C155.703 19.6823 154.845 20.7355 153.854 21.578C152.863 22.4127 151.919 22.8339 151.014 22.8339H151.014ZM144.961 20.4546C145.476 20.4077 146.03 19.8772 146.615 18.8476C147.208 17.8177 147.715 16.6165 148.136 15.2435C148.581 13.7847 148.799 12.5287 148.799 11.4755C148.799 10.594 148.526 10.1337 147.98 10.1025C147.473 10.1806 146.981 10.5628 146.506 11.2571C146.022 11.9514 145.593 12.8095 145.203 13.8315C144.813 14.8534 144.516 15.8597 144.321 16.8662C144.181 17.5995 144.118 18.247 144.118 18.8086C144.118 19.0271 144.142 19.3547 144.181 19.7916C144.228 20.2363 144.493 20.4547 144.961 20.4547V20.4546ZM159.525 22.951C159.245 22.951 158.894 22.8574 158.457 22.6858C158.028 22.5064 157.692 22.2489 157.466 21.8979C156.795 20.798 156.46 19.4562 156.46 17.8725C156.46 17.8101 156.467 17.342 156.491 16.4683C156.514 15.5947 156.74 14.3308 157.154 12.677C157.575 11.0231 158.012 9.67356 158.472 8.64375C158.792 7.94167 159.354 7.51256 160.165 7.36433C160.516 7.3019 160.867 7.27074 161.234 7.27074C161.71 7.27074 162.287 7.34875 162.974 7.49698C163.66 7.653 164.284 7.9183 164.846 8.30055C163.403 9.99338 162.217 12.4585 161.304 15.7038L161.944 14.4478C162.373 13.6053 162.95 12.6379 163.668 11.5458C164.393 10.4459 165.22 9.45511 166.141 8.57353C167.061 7.69195 168.029 7.14588 169.05 6.95092H169.3C170.08 6.95092 170.626 7.27853 170.946 7.93388C171.211 8.47994 171.336 9.12738 171.336 9.87631C171.336 10.1337 171.305 10.6097 171.235 11.2883C171.164 11.9748 170.891 12.7939 170.4 13.7456C169.916 14.6973 169.3 15.3448 168.574 15.6802C168.34 15.7895 168.114 15.8363 167.888 15.8363C167.326 15.8363 166.726 15.5633 166.102 15.0171C167.007 14.3306 167.451 13.5583 167.451 12.6846C167.451 12.045 167.233 11.7017 166.788 11.6548C166.406 11.6548 165.79 12.1697 164.924 13.1994C164.066 14.2291 163.215 15.5865 162.365 17.2716C161.522 18.9488 160.93 20.7665 160.594 22.7167C160.227 22.8727 159.876 22.9508 159.525 22.9508L159.525 22.951ZM174.496 22.834H174.402C173.107 22.6936 172.241 22.1164 171.797 21.0943C171.461 20.322 171.297 19.4171 171.297 18.403C171.297 18.0363 171.344 17.3811 171.446 16.4371C171.539 15.4932 171.836 14.2216 172.319 12.6379C172.811 11.0542 173.326 9.63449 173.88 8.37066C174.231 7.68416 174.8 7.25505 175.588 7.08346C175.97 7.01324 176.36 6.97417 176.758 6.97417C177.187 6.97417 177.726 7.04439 178.389 7.19262C179.052 7.33306 179.668 7.59824 180.23 7.9805C179.777 8.60457 179.239 9.56416 178.623 10.859C177.999 12.154 177.429 13.527 176.906 14.9703C176.376 16.4213 176.009 17.6694 175.799 18.7226C175.721 19.1282 175.682 19.4637 175.682 19.7289C175.682 20.2127 175.822 20.4545 176.095 20.4545C176.548 20.4545 177.078 20.1269 177.671 19.4715C178.49 18.5276 179.481 17.0142 180.643 14.9234C180.823 14.5411 180.955 14.354 181.033 14.354C181.096 14.354 181.127 14.4398 181.142 14.6036C181.041 15.8517 180.62 17.1233 179.886 18.4028C179.153 19.6822 178.303 20.7353 177.32 21.5779C176.337 22.4126 175.393 22.8338 174.496 22.8338V22.834ZM179.176 6.1241C178.919 6.1241 178.63 6.10073 178.311 6.06167C176.633 5.87449 175.799 5.28937 175.799 4.29862C175.799 3.64328 176.056 2.97247 176.571 2.28597C177 1.72433 177.718 1.44345 178.724 1.44345H179.02C180.191 1.5761 180.986 1.81792 181.4 2.15332C181.735 2.41083 181.899 2.76181 181.899 3.19871L181.876 3.51853C181.798 4.64972 181.361 5.42981 180.55 5.85112C180.214 6.0383 179.762 6.12421 179.177 6.12421L179.176 6.1241ZM191.721 22.834H191.635C189.786 22.6391 188.772 21.4454 188.569 19.2689C187.976 20.1972 187.313 20.9148 186.58 21.4142C185.846 21.9213 185.137 22.1709 184.434 22.1709C183.202 22.1709 182.235 21.7886 181.532 21.0319C180.495 19.932 179.98 18.3483 179.98 16.2733C179.98 15.6804 180.058 14.8925 180.23 13.9095C180.393 12.9266 180.791 11.85 181.415 10.6721C182.039 9.50196 182.851 8.53458 183.842 7.78565C184.832 7.02893 185.971 6.65446 187.266 6.65446C189.263 6.65446 190.41 7.5672 190.699 9.39268L191.151 8.37077C191.487 7.68427 192.048 7.25517 192.844 7.08357C193.226 7.01335 193.616 6.97429 194.006 6.97429C194.436 6.97429 194.974 7.04451 195.629 7.19274C196.284 7.33317 196.901 7.59836 197.462 7.98061C197.002 8.60468 196.472 9.56427 195.863 10.8592C195.255 12.1541 194.677 13.5271 194.147 14.9704C193.616 16.4214 193.242 17.6695 193.023 18.7227C192.953 19.1283 192.914 19.4638 192.914 19.729C192.914 20.2128 193.047 20.4546 193.328 20.4546C194.209 20.4546 195.372 19.222 196.823 16.7569C197.493 15.6257 197.907 14.8847 198.078 14.5336C198.156 14.4166 198.211 14.3542 198.258 14.3542C198.336 14.3542 198.375 14.44 198.375 14.6038C198.266 15.8519 197.852 17.1236 197.127 18.403C196.409 19.6824 195.551 20.7356 194.56 21.5781C193.569 22.4128 192.625 22.834 191.72 22.834H191.721ZM185.667 20.4547C186.182 20.4078 186.736 19.8774 187.321 18.8477C187.914 17.8179 188.421 16.6166 188.842 15.2436C189.287 13.7848 189.505 12.5288 189.505 11.4757C189.505 10.5941 189.232 10.1338 188.686 10.1027C188.179 10.1807 187.688 10.5629 187.212 11.2572C186.728 11.9515 186.299 12.8096 185.909 13.8316C185.519 14.8535 185.222 15.8599 185.027 16.8663C184.887 17.5996 184.824 18.2471 184.824 18.8087C184.824 19.0272 184.848 19.3548 184.887 19.7917C184.934 20.2364 185.199 20.4548 185.667 20.4548V20.4547Z" fill="#FEFEFE"/>
<path d="M80.8636 63.9602C82.3325 63.7425 83.6273 61.3379 84.7589 56.7245C85.379 54.2001 85.6838 52.8183 85.6838 52.5789C82.9635 53.3841 81.0377 54.6897 79.9169 56.4959C78.9812 58.0301 78.5133 59.4664 78.5133 60.8046C78.5133 61.0549 78.5786 61.6425 78.7201 62.5565C78.8507 63.4705 79.5688 63.9383 80.8636 63.9601V63.9602ZM105.16 35.235C103.202 35.235 100.122 34.9739 95.9116 34.4408C92.5821 33.9947 89.5029 33.7335 86.7066 33.6465H86.2604C83.7034 33.6465 81.9082 34.1578 80.8636 35.1697C80.7874 35.0065 80.7439 34.7998 80.7439 34.5713C80.7439 34.234 80.8636 33.7444 81.1246 33.1025C81.3749 32.4714 81.8536 31.7859 82.5391 31.0677C83.2355 30.3387 84.0406 29.86 84.9764 29.6315C86.38 29.3485 87.8706 29.2181 89.4375 29.2181C91.2546 29.2181 93.5286 29.3486 96.2596 29.6315C98.8601 29.9035 101.428 30.0449 103.974 30.0449C104.148 30.0449 104.964 30.034 106.422 30.0231C107.869 30.0122 109.784 29.5009 112.135 28.4781C112.287 29.1635 112.363 29.7946 112.363 30.3931C112.363 31.5356 112.102 32.5257 111.569 33.3526C110.905 34.2666 109.784 34.8324 108.185 35.05C107.271 35.1698 106.259 35.235 105.16 35.235H105.16ZM82.4631 66.3865C81.1682 66.3865 79.7537 65.7989 78.2195 64.6346C76.8812 63.503 76.2175 62.0885 76.2175 60.3911C76.2175 60.0756 76.3046 59.2921 76.4896 58.0627C76.6637 56.8332 77.6539 55.2446 79.4491 53.3078C81.2445 51.3818 83.5947 50.0218 86.5107 49.2384C87.6967 44.8535 88.9589 41.0235 90.2754 37.7266C90.7216 36.7473 91.494 36.138 92.6039 35.9095C93.0826 35.8225 93.5723 35.7789 94.0619 35.7789C94.7256 35.7789 95.5307 35.8878 96.4774 36.0944C97.4131 36.312 98.2836 36.671 99.067 37.1825C98.6645 37.8027 98.0117 39.141 97.0977 41.1975C96.1837 43.2648 95.237 45.615 94.2579 48.2808C95.3024 48.3026 96.0641 48.3461 96.5537 48.4332C97.0433 48.5203 97.62 48.6508 98.3055 48.8141C98.4796 47.541 98.6971 46.6597 98.9692 46.17C99.1651 45.8546 99.4805 45.6587 99.9267 45.5934C100.166 45.5607 100.395 45.539 100.634 45.539C101.265 45.539 101.918 45.6478 102.582 45.8872C102.19 46.5836 101.765 47.5737 101.298 48.8467C100.982 49.7607 100.819 50.5985 100.819 51.3711C100.819 51.6867 100.852 51.9912 100.917 52.296C99.6657 51.6758 98.3599 51.3711 96.9998 51.3711C95.9554 51.3711 94.6061 51.5017 92.9522 51.7845C92.5497 53.2098 91.9403 54.9399 91.1351 56.9747C90.3299 59.0202 89.318 60.9244 88.0994 62.6871C86.8916 64.4498 85.4553 65.6031 83.8015 66.158C83.377 66.3104 82.931 66.3866 82.4632 66.3866L82.4631 66.3865ZM119.055 61.2508H118.935C116.356 60.9788 114.942 59.314 114.659 56.2783C113.832 57.5731 112.907 58.5741 111.884 59.2705C110.862 59.9777 109.871 60.3258 108.892 60.3258C107.173 60.3258 105.824 59.7927 104.845 58.7372C103.397 57.2031 102.679 54.9943 102.679 52.1001C102.679 51.2731 102.788 50.1741 103.028 48.8032C103.256 47.4323 103.811 45.9306 104.681 44.2877C105.552 42.6556 106.683 41.3064 108.065 40.2619C109.447 39.2064 111.036 38.6842 112.842 38.6842C115.627 38.6842 117.227 39.9572 117.629 42.5033L118.261 41.0779C118.728 40.1204 119.512 39.522 120.622 39.2826C121.155 39.1846 121.699 39.1302 122.243 39.1302C122.841 39.1302 123.592 39.2282 124.506 39.4349C125.42 39.6308 126.28 40.0007 127.063 40.5339C126.421 41.4044 125.681 42.7427 124.833 44.5489C123.984 46.3551 123.179 48.2701 122.439 50.2831C121.699 52.307 121.177 54.0478 120.872 55.5167C120.774 56.0824 120.72 56.5504 120.72 56.9202C120.72 57.5948 120.905 57.9322 121.296 57.9322C122.526 57.9322 124.147 56.213 126.171 52.7748C127.107 51.1971 127.683 50.1634 127.923 49.6738C128.031 49.5105 128.108 49.4235 128.173 49.4235C128.282 49.4235 128.336 49.5432 128.336 49.7717C128.184 51.5127 127.607 53.2862 126.595 55.0706C125.594 56.8551 124.397 58.3239 123.016 59.499C121.634 60.6633 120.317 61.2508 119.055 61.2508ZM110.612 57.9322C111.33 57.8669 112.102 57.127 112.918 55.6908C113.745 54.2545 114.452 52.5789 115.04 50.6638C115.66 48.6291 115.965 46.8774 115.965 45.4085C115.965 44.179 115.584 43.537 114.822 43.4934C114.115 43.6023 113.43 44.1354 112.766 45.1038C112.091 46.0722 111.493 47.269 110.949 48.6944C110.405 50.1197 109.991 51.5233 109.719 52.927C109.523 53.9498 109.436 54.853 109.436 55.6364C109.436 55.941 109.469 56.398 109.523 57.0073C109.589 57.6275 109.959 57.9322 110.612 57.9322ZM130.926 61.4141C130.534 61.4141 130.044 61.2835 129.435 61.0441C128.837 60.7938 128.369 60.4348 128.053 59.9451C127.118 58.4109 126.65 56.5394 126.65 54.3306C126.65 54.2435 126.661 53.5907 126.693 52.3721C126.726 51.1535 127.042 49.3908 127.618 47.0841C128.206 44.7774 128.815 42.895 129.457 41.4588C129.903 40.4795 130.686 39.8811 131.818 39.6743C132.308 39.5873 132.797 39.5437 133.309 39.5437C133.972 39.5437 134.778 39.6526 135.735 39.8593C136.693 40.077 137.563 40.4469 138.347 40.98C136.334 43.3411 134.68 46.7794 133.407 51.3058L134.299 49.554C134.897 48.3788 135.703 47.0296 136.704 45.5063C137.716 43.9721 138.869 42.5903 140.153 41.3607C141.437 40.1313 142.786 39.3696 144.211 39.0976H144.56C145.648 39.0976 146.409 39.5545 146.855 40.4685C147.225 41.2302 147.399 42.1333 147.399 43.1777C147.399 43.5369 147.356 44.2006 147.258 45.1472C147.16 46.1047 146.779 47.2471 146.094 48.5747C145.419 49.9021 144.559 50.8052 143.548 51.2731C143.221 51.4255 142.906 51.4908 142.59 51.4908C141.807 51.4908 140.969 51.1099 140.098 50.3483C141.36 49.3907 141.981 48.3136 141.981 47.0949C141.981 46.2027 141.676 45.724 141.056 45.6587C140.523 45.6587 139.663 46.3768 138.455 47.813C137.258 49.2493 136.072 51.1425 134.886 53.4928C133.711 55.8321 132.884 58.3674 132.417 61.0875C131.905 61.3051 131.415 61.4139 130.926 61.4139L130.926 61.4141ZM151.806 61.2508H151.675C149.869 61.0549 148.661 60.2498 148.041 58.8244C147.573 57.7472 147.345 56.4851 147.345 55.0706C147.345 54.5592 147.41 53.6452 147.552 52.3287C147.682 51.0122 148.096 49.2386 148.77 47.0298C149.456 44.8211 150.174 42.8407 150.946 41.078C151.436 40.1205 152.23 39.5221 153.329 39.2827C153.862 39.1847 154.406 39.1303 154.961 39.1303C155.56 39.1303 156.31 39.2283 157.235 39.435C158.16 39.6309 159.02 40.0008 159.803 40.534C159.172 41.4045 158.421 42.7428 157.562 44.549C156.691 46.3553 155.897 48.2702 155.168 50.2832C154.428 52.3071 153.917 54.0479 153.623 55.5168C153.514 56.0825 153.46 56.5505 153.46 56.9204C153.46 57.5949 153.656 57.9323 154.036 57.9323C154.667 57.9323 155.407 57.4754 156.234 56.5614C157.377 55.2448 158.759 53.1339 160.38 50.2179C160.63 49.6848 160.815 49.4236 160.924 49.4236C161.011 49.4236 161.054 49.5433 161.076 49.7718C160.935 51.5128 160.347 53.2864 159.324 55.0707C158.302 56.8552 157.116 58.3241 155.745 59.4991C154.374 60.6634 153.057 61.2509 151.806 61.2509L151.806 61.2508ZM158.334 37.9443C157.975 37.9443 157.573 37.9116 157.127 37.8572C154.787 37.596 153.623 36.78 153.623 35.3982C153.623 34.4842 153.982 33.5484 154.7 32.591C155.299 31.8076 156.3 31.4158 157.703 31.4158H158.117C159.749 31.6008 160.859 31.9381 161.435 32.406C161.903 32.7651 162.132 33.2547 162.132 33.864L162.099 34.31C161.99 35.8878 161.381 36.9759 160.249 37.5634C159.782 37.8246 159.15 37.9442 158.334 37.9442L158.334 37.9443ZM175.831 61.2508H175.711C173.132 60.9788 171.718 59.314 171.435 56.2783C170.608 57.5731 169.683 58.5741 168.66 59.2705C167.637 59.9777 166.647 60.3258 165.668 60.3258C163.949 60.3258 162.6 59.7927 161.62 58.7372C160.173 57.2031 159.455 54.9943 159.455 52.1001C159.455 51.2731 159.564 50.1741 159.803 48.8032C160.032 47.4323 160.587 45.9306 161.457 44.2877C162.328 42.6556 163.459 41.3064 164.841 40.2619C166.223 39.2064 167.811 38.6842 169.618 38.6842C172.403 38.6842 174.002 39.9572 174.405 42.5033L175.036 41.0779C175.504 40.1204 176.287 39.522 177.397 39.2826C177.93 39.1846 178.475 39.1302 179.019 39.1302C179.617 39.1302 180.368 39.2282 181.282 39.4349C182.196 39.6308 183.055 40.0007 183.839 40.5339C183.197 41.4044 182.457 42.7427 181.608 44.5489C180.759 46.3551 179.954 48.2701 179.214 50.2831C178.475 52.307 177.952 54.0478 177.648 55.5167C177.55 56.0824 177.495 56.5504 177.495 56.9202C177.495 57.5948 177.68 57.9322 178.072 57.9322C179.301 57.9322 180.923 56.213 182.946 52.7748C183.882 51.1971 184.459 50.1634 184.698 49.6738C184.807 49.5105 184.883 49.4235 184.949 49.4235C185.057 49.4235 185.112 49.5432 185.112 49.7717C184.959 51.5127 184.383 53.2862 183.371 55.0706C182.37 56.8551 181.173 58.3239 179.791 59.499C178.409 60.6633 177.093 61.2508 175.831 61.2508ZM167.387 57.9322C168.105 57.8669 168.878 57.127 169.694 55.6908C170.521 54.2545 171.228 52.5789 171.816 50.6638C172.436 48.6291 172.74 46.8774 172.74 45.4085C172.74 44.179 172.36 43.537 171.598 43.4934C170.891 43.6023 170.205 44.1354 169.542 45.1038C168.867 46.0722 168.269 47.269 167.724 48.6944C167.18 50.1197 166.767 51.5233 166.495 52.927C166.299 53.9498 166.212 54.853 166.212 55.6364C166.212 55.941 166.245 56.398 166.299 57.0073C166.364 57.6275 166.734 57.9322 167.387 57.9322ZM187.701 61.1529C186.102 61.1529 184.829 60.8155 183.871 60.1301C182.511 59.1834 181.837 57.8451 181.826 56.1477C181.837 54.8965 182.185 53.8519 182.881 53.025C183.186 52.666 183.512 52.4701 183.871 52.4483C184.165 52.4701 184.318 52.6007 184.318 52.84C184.318 53.0902 184.263 53.3948 184.154 53.754C184.035 54.2218 183.969 54.6244 183.969 54.94C183.969 55.6799 184.307 56.3001 184.992 56.7898C185.776 57.3229 186.733 57.5841 187.854 57.5841C188.768 57.5841 189.54 57.3991 190.15 57.0401C190.617 56.768 190.857 56.3872 190.857 55.8977C190.857 55.6582 190.737 55.2666 190.52 54.7007C190.291 54.1349 189.203 53.1992 187.255 51.8935C185.297 50.5879 184.165 49.1189 183.871 47.476C183.806 47.0952 183.773 46.7253 183.773 46.3661C183.773 45.1367 184.209 43.8744 185.068 42.5906C185.928 41.2958 187.288 40.2839 189.127 39.544C190.302 39.0544 191.564 38.8041 192.924 38.8041C193.708 38.8041 194.535 38.8912 195.416 39.0653C196.961 39.4897 197.897 40.3274 198.212 41.5787C198.321 42.0466 198.376 42.5145 198.376 42.9823C198.376 43.7331 198.18 44.5709 197.799 45.5067C197.418 46.4424 196.83 46.9864 196.047 47.1605C196.003 46.3336 195.547 45.5828 194.676 44.8974C193.675 44.1357 192.685 43.755 191.684 43.755C190.813 43.755 190.215 44.2119 189.899 45.1259L189.867 45.3435C189.867 45.7461 190.074 46.127 190.487 46.4968C190.9 46.856 191.477 47.2476 192.228 47.672C193.305 48.2922 194.35 49.0756 195.351 50.044C196.352 51.0124 196.907 52.3289 197.037 53.9828V54.2114C197.037 56.1808 196.232 57.8347 194.611 59.1621C193 60.4895 190.694 61.1532 187.702 61.1532L187.701 61.1529Z" fill="#FEFEFE"/>
</svg>
